<svg xmlns="http://www.w3.org/2000/svg" viewBox="5 11.292 91.558 73.708" width="36" height="28"><path d="M 96.558 34.487 L 85.976 34.487 L 79.488 43.187 C 78.98 43.869 78.18 44.269 77.331 44.269 L 18.283 44.269 L 5 62.082 L 75.979 62.082 L 96.558 34.487 Z" fill="#182433" style="" transform="matrix(1, 0, 0, 1, 0, 2.842170943040401e-14)" /><path d="M 5 38.886 L 75.979 38.886 L 96.558 11.292 L 25.579 11.292 L 5 38.886 Z" fill="#182433" style="" transform="matrix(1, 0, 0, 1, 0, 2.842170943040401e-14)" /><path d="M 96.558 57.407 L 86.182 57.407 L 79.487 66.383 C 78.979 67.065 78.179 67.467 77.33 67.467 L 18.076 67.467 L 5 85 L 75.979 85 L 96.558 57.407 Z" fill="#182433" style="" transform="matrix(1, 0, 0, 1, 0, 2.842170943040401e-14)" /></svg>