<?xml version="1.0" standalone="no"?>
<!DOCTYPE svg PUBLIC "-//W3C//DTD SVG 20010904//EN"
 "http://www.w3.org/TR/2001/REC-SVG-20010904/DTD/svg10.dtd">
<svg version="1.0" xmlns="http://www.w3.org/2000/svg"
 width="512.000000pt" height="512.000000pt" viewBox="0 0 512.000000 512.000000"
 preserveAspectRatio="xMidYMid meet">
<metadata>
Created by potrace 1.14, written by Peter Selinger 2001-2017
</metadata>
<g transform="translate(0.000000,512.000000) scale(0.100000,-0.100000)"
fill="#000000" stroke="none">
<path d="M720 5099 c-328 -101 -591 -361 -694 -687 l-26 -83 0 -1769 0 -1769
25 -81 c102 -322 349 -571 674 -681 l84 -29 1777 0 1778 0 73 26 c41 14 79 26
84 28 6 1 38 16 72 34 250 128 443 356 527 620 l26 83 0 1777 -1 1777 -30 84
c-16 47 -38 100 -49 118 -11 19 -20 39 -20 44 0 22 -102 158 -171 230 -113
117 -231 195 -397 263 l-77 31 -1795 2 c-1771 2 -1796 2 -1860 -18z m2025
-353 c138 -10 167 -15 410 -70 35 -8 183 -59 220 -76 24 -11 47 -20 51 -20 13
0 227 -111 269 -140 24 -17 46 -30 50 -30 6 0 85 -52 110 -72 6 -5 20 -16 32
-26 12 -10 34 -27 48 -38 52 -37 181 -158 250 -235 273 -301 469 -709 531
-1104 4 -27 8 -54 9 -60 20 -98 20 -468 0 -565 -3 -14 -7 -45 -10 -69 -9 -73
-44 -221 -72 -306 -15 -44 -28 -84 -29 -90 -15 -65 -141 -315 -219 -434 -189
-286 -474 -552 -750 -700 -22 -12 -47 -26 -55 -31 -69 -44 -383 -166 -473
-184 -12 -3 -33 -7 -47 -11 -48 -10 -65 -14 -120 -24 -111 -20 -149 -23 -345
-26 -216 -3 -320 8 -530 56 -72 17 -238 72 -322 107 -139 59 -389 199 -435
245 -7 7 -20 18 -29 23 -90 51 -300 260 -421 417 -224 293 -370 646 -424 1027
-15 106 -21 405 -10 485 2 17 7 54 10 84 5 46 16 100 50 267 20 92 110 323
173 444 136 258 313 473 556 677 100 84 308 216 417 264 36 16 74 34 84 40 54
31 340 122 421 135 22 3 43 8 47 10 14 9 215 31 298 33 47 1 86 3 87 5 3 2 43
1 168 -8z"/>
<path d="M2470 4253 c-41 -3 -171 -21 -215 -29 -48 -8 -236 -65 -250 -75 -5
-3 -27 -12 -49 -19 -136 -44 -366 -193 -512 -333 -273 -260 -434 -561 -500
-932 -22 -121 -25 -389 -7 -508 60 -389 238 -732 507 -976 15 -14 47 -43 70
-63 90 -83 278 -197 416 -255 159 -66 289 -103 440 -123 107 -15 357 -16 430
-2 30 6 74 14 98 17 42 6 211 56 300 89 88 33 305 152 367 203 6 4 33 26 60
48 223 177 406 428 511 698 19 49 36 99 38 110 3 12 11 45 20 72 8 28 17 64
19 80 3 17 11 62 18 100 13 73 18 361 7 430 -4 22 -12 72 -18 110 -72 455
-395 908 -814 1141 -166 93 -406 179 -549 199 -99 13 -146 17 -242 19 -60 1
-126 0 -145 -1z m250 -467 c30 -3 62 -7 70 -10 8 -3 32 -8 53 -11 60 -8 196
-56 277 -97 349 -175 591 -507 654 -895 70 -435 -121 -890 -484 -1155 -89 -66
-241 -145 -310 -164 -8 -2 -45 -12 -81 -23 -103 -30 -133 -33 -299 -36 -163
-3 -246 8 -395 53 -64 20 -263 114 -275 130 -3 4 -18 16 -35 26 -45 29 -51 34
-150 131 -176 170 -286 374 -346 640 -14 61 -19 333 -8 390 24 118 32 152 37
165 3 8 6 17 7 20 17 70 93 224 157 319 162 239 452 438 718 491 3 1 32 7 66
14 33 7 91 14 129 15 38 1 71 3 72 5 3 3 54 0 143 -8z"/>
<path d="M2428 3280 c-233 -52 -428 -229 -515 -467 -32 -89 -44 -212 -30 -313
43 -306 271 -546 573 -604 77 -14 211 -13 271 3 21 6 49 12 63 14 14 3 52 18
85 33 185 88 307 222 378 417 26 72 30 98 33 207 2 88 -2 141 -12 180 -9 30
-17 62 -19 71 -6 29 -73 155 -89 168 -9 8 -16 19 -16 25 0 17 -113 124 -175
166 -147 100 -364 140 -547 100z m268 -472 c141 -70 176 -258 71 -387 -21 -25
-81 -57 -128 -69 -81 -20 -185 12 -236 72 -88 104 -85 245 7 337 79 79 187 97
286 47z"/>
</g>
</svg>
