<svg xmlns="http://www.w3.org/2000/svg" viewBox="0 0 24 24"><path fill="currentColor" d="m21.429 0h-18.857c-0.68199 0-1.336 0.27092-1.8183 0.75315s-0.75315 1.1363-0.75315 1.8183v18.857c0 0.682 0.27092 1.336 0.75315 1.8182 0.48224 0.4823 1.1363 0.7532 1.8183 0.7532h7.3527v-8.1595h-3.375v-3.8405h3.375v-2.9271c0-3.3295 1.9822-5.1686 5.018-5.1686 1.454 0 2.9743 0.25928 2.9743 0.25928v3.2679h-1.6751c-1.6506 0-2.1654 1.0243-2.1654 2.0748v2.4938h3.6846l-0.5893 3.8405h-3.0953v8.1595h7.3527c0.682 0 1.336-0.2709 1.8182-0.7532 0.4823-0.4822 0.7532-1.1362 0.7532-1.8182v-18.857c0-0.68199-0.2709-1.336-0.7532-1.8183-0.4822-0.48224-1.1362-0.75315-1.8182-0.75315z"/></svg>