<svg xmlns="http://www.w3.org/2000/svg" viewBox="0 0 24 24"><path fill="currentColor" d="m22.286 0h-20.577c-0.94286 0-1.7089 0.77679-1.7089 1.7304v20.539c0 0.9536 0.76607 1.7304 1.7089 1.7304h20.577c0.9429 0 1.7143-0.7768 1.7143-1.7304v-20.539c0-0.95357-0.7714-1.7304-1.7143-1.7304zm-15.032 20.571h-3.5571v-11.454h3.5625v11.454h-0.00536zm-1.7786-13.018c-1.1411 0-2.0625-0.92678-2.0625-2.0625 0-1.1357 0.92143-2.0625 2.0625-2.0625 1.1357 0 2.0625 0.92679 2.0625 2.0625 0 1.1411-0.92143 2.0625-2.0625 2.0625zm15.112 13.018h-3.5571v-5.5714c0-1.3286-0.0268-3.0375-1.8483-3.0375-1.8535 0-2.1375 1.4464-2.1375 2.9411v5.6678h-3.5571v-11.454h3.4125v1.5642h0.0482c0.4768-0.89996 1.6393-1.8482 3.3697-1.8482 3.6 0 4.2696 2.3732 4.2696 5.459v6.2785z"/></svg>