<svg width="148" height="148" viewBox="0 0 148 148" fill="none" xmlns="http://www.w3.org/2000/svg">
<rect width="148" height="148" rx="4" fill="none"/>
<path d="M77.125 27.125V45.875C77.125 47.5938 75.7188 49 74 49C72.2812 49 70.875 47.5938 70.875 45.875V27.125C70.875 25.4062 72.2812 24 74 24C75.7188 24 77.125 25.4062 77.125 27.125ZM77.125 102.125V120.875C77.125 122.594 75.7188 124 74 124C72.2812 124 70.875 122.594 70.875 120.875V102.125C70.875 100.406 72.2812 99 74 99C75.7188 99 77.125 100.406 77.125 102.125ZM24 74C24 72.2812 25.4062 70.875 27.125 70.875H45.875C47.5938 70.875 49 72.2812 49 74C49 75.7188 47.5938 77.125 45.875 77.125H27.125C25.4062 77.125 24 75.7188 24 74ZM102.125 70.875H120.875C122.594 70.875 124 72.2812 124 74C124 75.7188 122.594 77.125 120.875 77.125H102.125C100.406 77.125 99 75.7188 99 74C99 72.2812 100.406 70.875 102.125 70.875ZM109.352 38.6484C110.562 39.8594 110.562 41.8516 109.352 43.0625L96.0898 56.3242C94.8789 57.5352 92.8867 57.5352 91.6758 56.3242C90.4648 55.1133 90.4648 53.1211 91.6758 51.9102L104.938 38.6484C106.148 37.4375 108.141 37.4375 109.352 38.6484ZM56.3242 96.0898L43.0625 109.352C41.8516 110.562 39.8594 110.562 38.6484 109.352C37.4375 108.141 37.4375 106.148 38.6484 104.938L51.9102 91.6758C53.1211 90.4648 55.1133 90.4648 56.3242 91.6758C57.5352 92.8867 57.5352 94.8789 56.3242 96.0898ZM38.6484 38.6484C39.8594 37.4375 41.8516 37.4375 43.0625 38.6484L56.3242 51.9102C57.5352 53.1211 57.5352 55.1133 56.3242 56.3242C55.1133 57.5352 53.1211 57.5352 51.9102 56.3242L38.6484 43.0625C37.4375 41.8516 37.4375 39.8594 38.6484 38.6484ZM96.0898 91.6758L109.352 104.938C110.562 106.148 110.562 108.141 109.352 109.352C108.141 110.562 106.148 110.562 104.938 109.352L91.6758 96.0898C90.4648 94.8789 90.4648 92.8867 91.6758 91.6758C92.8867 90.4648 94.8789 90.4648 96.0898 91.6758Z" fill="#6C757D"/>
</svg>
